<svg width="40" height="40" viewBox="0 0 40 40" fill="none" xmlns="http://www.w3.org/2000/svg">
  <path d="M7 7C7 5.89543 7.89543 5 9 5H31C32.1046 5 33 5.89543 33 7V33C33 34.1046 32.1046 35 31 35H9C7.89543 35 7 34.1046 7 33V7Z" fill="#1E1E1E"/>
  <path d="M16 13V27M16 13H13M16 13H19M16 20H19M16 27H13M16 27H19M24 13V27M24 13H27M24 13H21M24 27H27M24 27H21" stroke="#FF6B35" stroke-width="2.5" stroke-linecap="round" stroke-linejoin="round"/>
  <path d="M7 7C7 5.89543 7.89543 5 9 5H31C32.1046 5 33 5.89543 33 7V33C33 34.1046 32.1046 35 31 35H9C7.89543 35 7 34.1046 7 33V7Z" stroke="#FF6B35" stroke-width="1.5"/>
</svg> 